# Z-up; centered Z-axis pivot; units arbitrary
mtllib basic-trophy.mtl
o BasicTrophy
v -0.654280 -0.642000 0.000000
v 0.654280 -0.642000 0.000000
v 0.757000 -0.539280 0.000000
v 0.757000 0.539280 0.000000
v 0.654280 0.642000 0.000000
v -0.654280 0.642000 0.000000
v -0.757000 0.539280 0.000000
v -0.757000 -0.539280 0.000000
v -0.669400 -0.660000 0.018000
v 0.669400 -0.660000 0.018000
v 0.775000 -0.554400 0.018000
v 0.775000 0.554400 0.018000
v 0.669400 0.660000 0.018000
v -0.669400 0.660000 0.018000
v -0.775000 0.554400 0.018000
v -0.775000 -0.554400 0.018000
v -0.669400 -0.660000 0.082000
v 0.669400 -0.660000 0.082000
v 0.775000 -0.554400 0.082000
v 0.775000 0.554400 0.082000
v 0.669400 0.660000 0.082000
v -0.669400 0.660000 0.082000
v -0.775000 0.554400 0.082000
v -0.775000 -0.554400 0.082000
v -0.654280 -0.642000 0.100000
v 0.654280 -0.642000 0.100000
v 0.757000 -0.539280 0.100000
v 0.757000 0.539280 0.100000
v 0.654280 0.642000 0.100000
v -0.654280 0.642000 0.100000
v -0.757000 0.539280 0.100000
v -0.757000 -0.539280 0.100000
v -0.641680 -0.627000 0.100000
v 0.641680 -0.627000 0.100000
v 0.742000 -0.526680 0.100000
v 0.742000 0.526680 0.100000
v 0.641680 0.627000 0.100000
v -0.641680 0.627000 0.100000
v -0.742000 0.526680 0.100000
v -0.742000 -0.526680 0.100000
v -0.656800 -0.645000 0.118000
v 0.656800 -0.645000 0.118000
v 0.760000 -0.541800 0.118000
v 0.760000 0.541800 0.118000
v 0.656800 0.645000 0.118000
v -0.656800 0.645000 0.118000
v -0.760000 0.541800 0.118000
v -0.760000 -0.541800 0.118000
v -0.656800 -0.645000 0.117000
v 0.656800 -0.645000 0.117000
v 0.760000 -0.541800 0.117000
v 0.760000 0.541800 0.117000
v 0.656800 0.645000 0.117000
v -0.656800 0.645000 0.117000
v -0.760000 0.541800 0.117000
v -0.760000 -0.541800 0.117000
v -0.641680 -0.627000 0.135000
v 0.641680 -0.627000 0.135000
v 0.742000 -0.526680 0.135000
v 0.742000 0.526680 0.135000
v 0.641680 0.627000 0.135000
v -0.641680 0.627000 0.135000
v -0.742000 0.526680 0.135000
v -0.742000 -0.526680 0.135000
v -0.603880 -0.582000 0.135000
v 0.603880 -0.582000 0.135000
v 0.697000 -0.488880 0.135000
v 0.697000 0.488880 0.135000
v 0.603880 0.582000 0.135000
v -0.603880 0.582000 0.135000
v -0.697000 0.488880 0.135000
v -0.697000 -0.488880 0.135000
v -0.619000 -0.600000 0.153000
v 0.619000 -0.600000 0.153000
v 0.715000 -0.504000 0.153000
v 0.715000 0.504000 0.153000
v 0.619000 0.600000 0.153000
v -0.619000 0.600000 0.153000
v -0.715000 0.504000 0.153000
v -0.715000 -0.504000 0.153000
v -0.619000 -0.600000 0.777000
v 0.619000 -0.600000 0.777000
v 0.715000 -0.504000 0.777000
v 0.715000 0.504000 0.777000
v 0.619000 0.600000 0.777000
v -0.619000 0.600000 0.777000
v -0.715000 0.504000 0.777000
v -0.715000 -0.504000 0.777000
v -0.603880 -0.582000 0.795000
v 0.603880 -0.582000 0.795000
v 0.697000 -0.488880 0.795000
v 0.697000 0.488880 0.795000
v 0.603880 0.582000 0.795000
v -0.603880 0.582000 0.795000
v -0.697000 0.488880 0.795000
v -0.697000 -0.488880 0.795000
v -0.412480 -0.372000 0.795000
v 0.412480 -0.372000 0.795000
v 0.472000 -0.312480 0.795000
v 0.472000 0.312480 0.795000
v 0.412480 0.372000 0.795000
v -0.412480 0.372000 0.795000
v -0.472000 0.312480 0.795000
v -0.472000 -0.312480 0.795000
v -0.427600 -0.390000 0.813000
v 0.427600 -0.390000 0.813000
v 0.490000 -0.327600 0.813000
v 0.490000 0.327600 0.813000
v 0.427600 0.390000 0.813000
v -0.427600 0.390000 0.813000
v -0.490000 0.327600 0.813000
v -0.490000 -0.327600 0.813000
v -0.427600 -0.390000 0.822000
v 0.427600 -0.390000 0.822000
v 0.490000 -0.327600 0.822000
v 0.490000 0.327600 0.822000
v 0.427600 0.390000 0.822000
v -0.427600 0.390000 0.822000
v -0.490000 0.327600 0.822000
v -0.490000 -0.327600 0.822000
v -0.412480 -0.372000 0.840000
v 0.412480 -0.372000 0.840000
v 0.472000 -0.312480 0.840000
v 0.472000 0.312480 0.840000
v 0.412480 0.372000 0.840000
v -0.412480 0.372000 0.840000
v -0.472000 0.312480 0.840000
v -0.472000 -0.312480 0.840000
v -0.443200 -0.390000 0.840000
v 0.443200 -0.390000 0.840000
v 0.490000 -0.343200 0.840000
v 0.490000 0.343200 0.840000
v 0.443200 0.390000 0.840000
v -0.443200 0.390000 0.840000
v -0.490000 0.343200 0.840000
v -0.490000 -0.343200 0.840000
v -0.425000 -0.375000 1.020000
v 0.425000 -0.375000 1.020000
v 0.470000 -0.330000 1.020000
v 0.470000 0.330000 1.020000
v 0.425000 0.375000 1.020000
v -0.425000 0.375000 1.020000
v -0.470000 0.330000 1.020000
v -0.470000 -0.330000 1.020000
v -0.378600 -0.345000 1.380000
v 0.378600 -0.345000 1.380000
v 0.420000 -0.303600 1.380000
v 0.420000 0.303600 1.380000
v 0.378600 0.345000 1.380000
v -0.378600 0.345000 1.380000
v -0.420000 0.303600 1.380000
v -0.420000 -0.303600 1.380000
v -0.332800 -0.310000 1.850000
v 0.332800 -0.310000 1.850000
v 0.370000 -0.272800 1.850000
v 0.370000 0.272800 1.850000
v 0.332800 0.310000 1.850000
v -0.332800 0.310000 1.850000
v -0.370000 0.272800 1.850000
v -0.370000 -0.272800 1.850000
v -0.314600 -0.295000 2.500000
v 0.314600 -0.295000 2.500000
v 0.350000 -0.259600 2.500000
v 0.350000 0.259600 2.500000
v 0.314600 0.295000 2.500000
v -0.314600 0.295000 2.500000
v -0.350000 0.259600 2.500000
v -0.350000 -0.259600 2.500000
v -0.319000 -0.300000 3.250000
v 0.319000 -0.300000 3.250000
v 0.355000 -0.264000 3.250000
v 0.355000 0.264000 3.250000
v 0.319000 0.300000 3.250000
v -0.319000 0.300000 3.250000
v -0.355000 0.264000 3.250000
v -0.355000 -0.264000 3.250000
v -0.332800 -0.310000 3.608656
v 0.332800 -0.310000 4.094544
v 0.370000 -0.272800 4.145508
v 0.370000 0.272800 4.494692
v 0.332800 0.310000 4.491344
v -0.332800 0.310000 4.005456
v -0.370000 0.272800 3.954492
v -0.370000 -0.272800 3.605308
usemtl black
f 1 2 10
f 1 10 9
f 2 3 11
f 2 11 10
f 3 4 12
f 3 12 11
f 4 5 13
f 4 13 12
f 5 6 14
f 5 14 13
f 6 7 15
f 6 15 14
f 7 8 16
f 7 16 15
f 8 1 9
f 8 9 16
f 9 10 18
f 9 18 17
f 10 11 19
f 10 19 18
f 11 12 20
f 11 20 19
f 12 13 21
f 12 21 20
f 13 14 22
f 13 22 21
f 14 15 23
f 14 23 22
f 15 16 24
f 15 24 23
f 16 9 17
f 16 17 24
f 17 18 26
f 17 26 25
f 18 19 27
f 18 27 26
f 19 20 28
f 19 28 27
f 20 21 29
f 20 29 28
f 21 22 30
f 21 30 29
f 22 23 31
f 22 31 30
f 23 24 32
f 23 32 31
f 24 17 25
f 24 25 32
f 1 3 2
f 25 26 27
f 1 4 3
f 25 27 28
f 1 5 4
f 25 28 29
f 1 6 5
f 25 29 30
f 1 7 6
f 25 30 31
f 1 8 7
f 25 31 32
usemtl gold
f 33 34 42
f 33 42 41
f 34 35 43
f 34 43 42
f 35 36 44
f 35 44 43
f 36 37 45
f 36 45 44
f 37 38 46
f 37 46 45
f 38 39 47
f 38 47 46
f 39 40 48
f 39 48 47
f 40 33 41
f 40 41 48
f 41 42 50
f 41 50 49
f 42 43 51
f 42 51 50
f 43 44 52
f 43 52 51
f 44 45 53
f 44 53 52
f 45 46 54
f 45 54 53
f 46 47 55
f 46 55 54
f 47 48 56
f 47 56 55
f 48 41 49
f 48 49 56
f 49 50 58
f 49 58 57
f 50 51 59
f 50 59 58
f 51 52 60
f 51 60 59
f 52 53 61
f 52 61 60
f 53 54 62
f 53 62 61
f 54 55 63
f 54 63 62
f 55 56 64
f 55 64 63
f 56 49 57
f 56 57 64
f 33 35 34
f 57 58 59
f 33 36 35
f 57 59 60
f 33 37 36
f 57 60 61
f 33 38 37
f 57 61 62
f 33 39 38
f 57 62 63
f 33 40 39
f 57 63 64
usemtl black
f 65 66 74
f 65 74 73
f 66 67 75
f 66 75 74
f 67 68 76
f 67 76 75
f 68 69 77
f 68 77 76
f 69 70 78
f 69 78 77
f 70 71 79
f 70 79 78
f 71 72 80
f 71 80 79
f 72 65 73
f 72 73 80
f 73 74 82
f 73 82 81
f 74 75 83
f 74 83 82
f 75 76 84
f 75 84 83
f 76 77 85
f 76 85 84
f 77 78 86
f 77 86 85
f 78 79 87
f 78 87 86
f 79 80 88
f 79 88 87
f 80 73 81
f 80 81 88
f 81 82 90
f 81 90 89
f 82 83 91
f 82 91 90
f 83 84 92
f 83 92 91
f 84 85 93
f 84 93 92
f 85 86 94
f 85 94 93
f 86 87 95
f 86 95 94
f 87 88 96
f 87 96 95
f 88 81 89
f 88 89 96
f 65 67 66
f 89 90 91
f 65 68 67
f 89 91 92
f 65 69 68
f 89 92 93
f 65 70 69
f 89 93 94
f 65 71 70
f 89 94 95
f 65 72 71
f 89 95 96
usemtl gold
f 97 98 106
f 97 106 105
f 98 99 107
f 98 107 106
f 99 100 108
f 99 108 107
f 100 101 109
f 100 109 108
f 101 102 110
f 101 110 109
f 102 103 111
f 102 111 110
f 103 104 112
f 103 112 111
f 104 97 105
f 104 105 112
f 105 106 114
f 105 114 113
f 106 107 115
f 106 115 114
f 107 108 116
f 107 116 115
f 108 109 117
f 108 117 116
f 109 110 118
f 109 118 117
f 110 111 119
f 110 119 118
f 111 112 120
f 111 120 119
f 112 105 113
f 112 113 120
f 113 114 122
f 113 122 121
f 114 115 123
f 114 123 122
f 115 116 124
f 115 124 123
f 116 117 125
f 116 125 124
f 117 118 126
f 117 126 125
f 118 119 127
f 118 127 126
f 119 120 128
f 119 128 127
f 120 113 121
f 120 121 128
f 97 99 98
f 121 122 123
f 97 100 99
f 121 123 124
f 97 101 100
f 121 124 125
f 97 102 101
f 121 125 126
f 97 103 102
f 121 126 127
f 97 104 103
f 121 127 128
f 129 130 138
f 129 138 137
f 130 131 139
f 130 139 138
f 131 132 140
f 131 140 139
f 132 133 141
f 132 141 140
f 133 134 142
f 133 142 141
f 134 135 143
f 134 143 142
f 135 136 144
f 135 144 143
f 136 129 137
f 136 137 144
f 137 138 146
f 137 146 145
f 138 139 147
f 138 147 146
f 139 140 148
f 139 148 147
f 140 141 149
f 140 149 148
f 141 142 150
f 141 150 149
f 142 143 151
f 142 151 150
f 143 144 152
f 143 152 151
f 144 137 145
f 144 145 152
f 145 146 154
f 145 154 153
f 146 147 155
f 146 155 154
f 147 148 156
f 147 156 155
f 148 149 157
f 148 157 156
f 149 150 158
f 149 158 157
f 150 151 159
f 150 159 158
f 151 152 160
f 151 160 159
f 152 145 153
f 152 153 160
f 153 154 162
f 153 162 161
f 154 155 163
f 154 163 162
f 155 156 164
f 155 164 163
f 156 157 165
f 156 165 164
f 157 158 166
f 157 166 165
f 158 159 167
f 158 167 166
f 159 160 168
f 159 168 167
f 160 153 161
f 160 161 168
f 161 162 170
f 161 170 169
f 162 163 171
f 162 171 170
f 163 164 172
f 163 172 171
f 164 165 173
f 164 173 172
f 165 166 174
f 165 174 173
f 166 167 175
f 166 175 174
f 167 168 176
f 167 176 175
f 168 161 169
f 168 169 176
f 169 170 178
f 169 178 177
f 170 171 179
f 170 179 178
f 171 172 180
f 171 180 179
f 172 173 181
f 172 181 180
f 173 174 182
f 173 182 181
f 174 175 183
f 174 183 182
f 175 176 184
f 175 184 183
f 176 169 177
f 176 177 184
f 129 131 130
f 177 178 179
f 129 132 131
f 177 179 180
f 129 133 132
f 177 180 181
f 129 134 133
f 177 181 182
f 129 135 134
f 177 182 183
f 129 136 135
f 177 183 184
